# xmcd
# 
# Track frame offsets:
#     150
#     21875
#     40538
#     59278
#     77793
#     98130
#     117733
#     138383
#     152955
# 
# Disc length: 2295
# 
# Revision: 9
# Processed by: cddbd v1.5.2PL0 Copyright (c) Steve Scherf et al.
# Submitted via: fre:ac v1.0.27
# 
DISCID=7308f509
DTITLE=Stardust Revue - Best Wishes [Disc 1]
DYEAR=1990
DGENRE=JPop
TTITLE0=Sugar wa Otoshigoro
TTITLE1=Ginza Neon Paradise
TTITLE2=Black Pepper no Tappuri Kiita Watashi no Tsukutta Onion Slices
TTITLE3=Twilight Avenue
TTITLE4=Yume Densetsu
TTITLE5=Omoide ni Kawarumade
TTITLE6=Single Night
TTITLE7=6 Gatsu no Jingle Bell
TTITLE8=Konya Dake Kitto
EXTD=
EXTT0=
EXTT1=
EXTT2=
EXTT3=
EXTT4=
EXTT5=
EXTT6=
EXTT7=
EXTT8=
PLAYORDER=
